<svg xmlns="http://www.w3.org/2000/svg" width="149.85" height="149.978" viewBox="0 0 149.85 149.978">
  <g id="_1" data-name="1" transform="translate(-125.08 -119.67)">
    <path id="Path_16" data-name="Path 16" d="M156.71,123.41c4,5.4,5.87,11.72,7.21,18.22,1.2,5.85,2.17,11.73,3.59,17.54,2.82,11.54,6.79,23.06,13,33.26a61.2,61.2,0,0,0,12.68,15.17,2.57,2.57,0,0,0,3.53,0,2.52,2.52,0,0,0,0-3.54c-8.82-7.41-14.69-17.72-18.83-28.34-4.26-10.94-6.58-22.31-8.82-33.79-1.44-7.42-3.47-14.88-8-21.05a2.59,2.59,0,0,0-3.42-.9,2.53,2.53,0,0,0-.9,3.43Z" fill="#231f20"/>
    <path id="Path_18" data-name="Path 18" d="M172.52,145.11c2.35,3.15,3.31,6.79,4,10.6.6,3.22,1.17,6.44,2,9.63a70,70,0,0,0,7.37,19A33.72,33.72,0,0,0,193,193a2.58,2.58,0,0,0,3.54,0,2.53,2.53,0,0,0,0-3.54c-4.87-4.07-8-9.85-10.21-15.71A106.762,106.762,0,0,1,181.48,155c-.8-4.39-1.94-8.77-4.64-12.4a2.58,2.58,0,0,0-3.42-.9,2.51,2.51,0,0,0-.9,3.42Z" fill="#231f20"/>
    <rect id="Rectangle_35" data-name="Rectangle 35" width="147.85" height="147.85" rx="28.61" transform="translate(126.08 120.72)" fill="none" stroke="#231f20" stroke-miterlimit="10" stroke-width="2"/>
    <path id="Path_19" data-name="Path 19" d="M250.4,268.59h-32c-13,0-23.46-10.18-23.46-22.71V143.42c0-12.56,10.53-22.73,23.52-22.71h32c13,0,23.46,10.18,23.46,22.71V245.88C273.92,258.43,263.39,268.6,250.4,268.59Z" fill="#231f20" stroke="#231f20" stroke-miterlimit="10" stroke-width="2"/>
    <path id="Path_20" data-name="Path 20" d="M212,166.89c-4.41,11.29-8.83,22.67-11.21,34.6A154.39,154.39,0,0,0,198,236c.18,6.74.69,13.48,1.25,20.21a2.57,2.57,0,0,0,2.5,2.5,2.53,2.53,0,0,0,2.5-2.5c-.95-11.42-1.74-22.89-1.08-34.35a135.86,135.86,0,0,1,6.61-34.59c2.11-6.44,4.58-12.76,7-19.07a2.52,2.52,0,0,0-1.75-3.08,2.56,2.56,0,0,0-3.07,1.75Z" fill="#fff"/>
    <path id="Path_21" data-name="Path 21" d="M209.87,197.66c-1.48,9.56-2.89,19.13-3.13,28.81a187.717,187.717,0,0,0,1.14,25.64c.59,5.25,1.35,10.48,2.14,15.71a2.51,2.51,0,0,0,3.07,1.74,2.56,2.56,0,0,0,1.75-3.07c-1.27-8.39-2.42-16.79-2.9-25.27a164.877,164.877,0,0,1,.63-26.94c.55-5.12,1.34-10.21,2.12-15.29a2.59,2.59,0,0,0-1.74-3.08,2.53,2.53,0,0,0-3.08,1.75Z" fill="#fff"/>
  </g>
</svg>
